<svg id="3e57465b-106a-4c02-84c8-624dbbc5795d" data-name="Layer 1" xmlns="http://www.w3.org/2000/svg" viewBox="0 0 119 32"><title>logo</title><path d="M35.6,11.93a1,1,0,0,1,0,.74,1,1,0,0,1-.22.33.91.91,0,0,1-.33.22,1.23,1.23,0,0,1-.38.08,1,1,0,0,1-.38-.07A.79.79,0,0,1,34,13a3.08,3.08,0,0,0-1.1-.72,3.47,3.47,0,0,0-1.23-.22,3.16,3.16,0,0,0-2.27.93,3.15,3.15,0,0,0-.7,1,3.28,3.28,0,0,0,0,2.51,3.33,3.33,0,0,0,.67,1,3.17,3.17,0,0,0,1,.71,2.94,2.94,0,0,0,1.26.27,3.2,3.2,0,0,0,1.24-.21,3.12,3.12,0,0,0,1.1-.72.75.75,0,0,1,.32-.21,1.07,1.07,0,0,1,.76,0,.83.83,0,0,1,.32.2.86.86,0,0,1,.23.33,1.16,1.16,0,0,1,.07.37,1.22,1.22,0,0,1-.07.38.89.89,0,0,1-.21.32,5.12,5.12,0,0,1-1.76,1.17,5.31,5.31,0,0,1-2,.39,5.22,5.22,0,0,1-1.38-.19A5,5,0,0,1,29,19.86a5.21,5.21,0,0,1-1-.82,5.17,5.17,0,0,1-1.53-3.71A5.11,5.11,0,0,1,26.59,14a5,5,0,0,1,.5-1.25,5.43,5.43,0,0,1,.8-1.07,5.08,5.08,0,0,1,1.05-.85,5,5,0,0,1,1.27-.55,4.91,4.91,0,0,1,1.44-.2,5.49,5.49,0,0,1,2,.38,5.24,5.24,0,0,1,1.74,1.17A1.08,1.08,0,0,1,35.6,11.93Z" style="fill:#24515c"/><path d="M43,10.25a5.11,5.11,0,0,1,1.25.53,5,5,0,0,1,1.07.82,4.76,4.76,0,0,1,.82,1.07,5.56,5.56,0,0,1,.54,1.25,5.43,5.43,0,0,1,.19,1.4,5,5,0,0,1-.42,2.05A5.47,5.47,0,0,1,45.33,19a5.33,5.33,0,0,1-1.67,1.12,5.21,5.21,0,0,1-4.1,0A5.22,5.22,0,0,1,37.89,19a5.42,5.42,0,0,1-1.11-1.67,5,5,0,0,1-.41-2.05,5.43,5.43,0,0,1,.18-1.4,5.53,5.53,0,0,1,.53-1.25,5.07,5.07,0,0,1,.82-1.07A4.7,4.7,0,0,1,39,10.78a4.8,4.8,0,0,1,1.25-.53,5,5,0,0,1,1.4-.19A5,5,0,0,1,43,10.25Zm-2.66,2.09a3.21,3.21,0,0,0-1,.69,3.33,3.33,0,0,0-.69,1,3.12,3.12,0,0,0-.25,1.26,3.18,3.18,0,0,0,.25,1.28,3.45,3.45,0,0,0,.69,1,3,3,0,0,0,1,.68,3.33,3.33,0,0,0,2.53,0,3.18,3.18,0,0,0,1-.68,3.45,3.45,0,0,0,.69-1,3.36,3.36,0,0,0,.25-1.28,3.29,3.29,0,0,0-.25-1.26,3.33,3.33,0,0,0-.69-1,3.37,3.37,0,0,0-1-.69,3.33,3.33,0,0,0-2.53,0Z" style="fill:#24515c"/><path d="M51.08,10.13a5.28,5.28,0,0,1,2.66.7,5.2,5.2,0,0,1,1.07.81,5,5,0,0,1,.82,1,4.73,4.73,0,0,1,.53,1.24,4.91,4.91,0,0,1,.19,1.39A5.15,5.15,0,0,1,55.63,18a5.15,5.15,0,0,1-.82,1,5.48,5.48,0,0,1-1.07.79,5.28,5.28,0,0,1-2.66.7h-1.8a1,1,0,0,1-.39-.08,1,1,0,0,1-.32-.21,1.16,1.16,0,0,1-.22-.31,1,1,0,0,1-.07-.39V11.12a1,1,0,0,1,.07-.39,1.16,1.16,0,0,1,.22-.31,1,1,0,0,1,.32-.21,1,1,0,0,1,.39-.08Zm3.25,5.2a3.12,3.12,0,0,0-.25-1.26,3,3,0,0,0-.69-1,3.27,3.27,0,0,0-1-.67,3.34,3.34,0,0,0-1.27-.24h-.81v6.31h.81a3.33,3.33,0,0,0,1.27-.23,3.22,3.22,0,0,0,1-.65,2.93,2.93,0,0,0,.69-1A3.08,3.08,0,0,0,54.33,15.33Z" style="fill:#24515c"/><path d="M58.72,20.48a1.08,1.08,0,0,1-.66-.31.94.94,0,0,1-.26-.68V11.13a1,1,0,0,1,.08-.39,1,1,0,0,1,.21-.32.89.89,0,0,1,.32-.21,1,1,0,0,1,.39-.08h4.12a1,1,0,0,1,.39.08,1,1,0,0,1,.31.21,1,1,0,0,1,.21.32,1,1,0,0,1,.08.39,1.1,1.1,0,0,1-.08.4,1,1,0,0,1-.21.31.84.84,0,0,1-.31.22,1,1,0,0,1-.39.08H59.81v2.21H62a1,1,0,0,1,.4.07,1,1,0,0,1,.32.21.89.89,0,0,1,.21.32,1,1,0,0,1,.08.39.92.92,0,0,1-.08.38.81.81,0,0,1-.21.3,1,1,0,0,1-.32.21,1,1,0,0,1-.4.07H59.81v2.18h3.11a1,1,0,0,1,.39.08,1.16,1.16,0,0,1,.31.22,1,1,0,0,1,.21.32,1,1,0,0,1,0,.78.89.89,0,0,1-.21.32,1,1,0,0,1-.31.21,1,1,0,0,1-.39.07Z" style="fill:#24515c"/><path d="M70.78,14.88l-.67,4.74A1.15,1.15,0,0,1,70,20a1,1,0,0,1-.25.28,1,1,0,0,1-.35.16,1.07,1.07,0,0,1-.4,0,1,1,0,0,1-.38-.13,1.12,1.12,0,0,1-.28-.25,1.17,1.17,0,0,1-.16-.34.77.77,0,0,1,0-.4l1.18-8.29a.79.79,0,0,1,.08-.3,1.38,1.38,0,0,1,.17-.25,1.18,1.18,0,0,1,.4-.27,1,1,0,0,1,.38-.07.94.94,0,0,1,.37.07,1.16,1.16,0,0,1,.32.2,1,1,0,0,1,.23.33l2.5,6.11,2.48-6.11a1.21,1.21,0,0,1,.22-.32,1.06,1.06,0,0,1,.31-.21.94.94,0,0,1,.37-.07,1.07,1.07,0,0,1,.39.07,2,2,0,0,1,.23.14.89.89,0,0,1,.29.29,1,1,0,0,1,.14.4l1.09,8.3a.89.89,0,0,1,0,.4,1,1,0,0,1-.18.34,1,1,0,0,1-.29.25.85.85,0,0,1-.38.12.86.86,0,0,1-.39,0,1,1,0,0,1-.34-.16.91.91,0,0,1-.26-.29.81.81,0,0,1-.12-.38L76.67,15l-2,4.92a1,1,0,0,1-.33.41.92.92,0,0,1-.47.19h-.38l-.06,0-.06,0a1.15,1.15,0,0,1-.33-.21,1.36,1.36,0,0,1-.23-.34Z" style="fill:#31aebc"/><path d="M82.49,19.49a1,1,0,0,1-.08.39,1,1,0,0,1-.21.31,1,1,0,0,1-.32.21,1.09,1.09,0,0,1-.39.08,1,1,0,0,1-.39-.08,1,1,0,0,1-.32-.21,1,1,0,0,1-.22-.31,1,1,0,0,1-.07-.39V11.12a1,1,0,0,1,.07-.39,1,1,0,0,1,.22-.31,1,1,0,0,1,.32-.21,1,1,0,0,1,.39-.08,1.09,1.09,0,0,1,.39.08,1,1,0,0,1,.32.21,1,1,0,0,1,.21.31,1,1,0,0,1,.08.39Z" style="fill:#31aebc"/><path d="M86.28,16a4.09,4.09,0,0,1-1.15-.64,2.59,2.59,0,0,1-.74-.91,2.71,2.71,0,0,1-.26-1.2A2.85,2.85,0,0,1,84.42,12a3,3,0,0,1,.76-1,3.73,3.73,0,0,1,1.13-.66,4.09,4.09,0,0,1,1.36-.23,4.34,4.34,0,0,1,1,.1,4.2,4.2,0,0,1,.89.28,3.49,3.49,0,0,1,.76.48,2.45,2.45,0,0,1,.57.67.59.59,0,0,1,.1.28,1,1,0,0,1,0,.29.82.82,0,0,1-.1.26.64.64,0,0,1-.16.2.74.74,0,0,1-.25.17,1.4,1.4,0,0,1-.31.09,1.32,1.32,0,0,1-.34,0,1,1,0,0,1-.35-.16L89,12.43a2.5,2.5,0,0,0-.35-.21,2.58,2.58,0,0,0-.42-.12,4.15,4.15,0,0,0-.55,0,2.17,2.17,0,0,0-.65.09,1.32,1.32,0,0,0-.49.24,1,1,0,0,0-.31.36.86.86,0,0,0-.11.45.78.78,0,0,0,.15.5,1.25,1.25,0,0,0,.46.32,3.21,3.21,0,0,0,.72.23l1,.2a6.74,6.74,0,0,1,1.08.33,3.84,3.84,0,0,1,.94.56,2.58,2.58,0,0,1,.66.83,2.54,2.54,0,0,1,.26,1.18,3,3,0,0,1-.28,1.26,3.16,3.16,0,0,1-.78,1,3.94,3.94,0,0,1-1.18.69,4.18,4.18,0,0,1-1.48.25,4.27,4.27,0,0,1-1.19-.16,4.21,4.21,0,0,1-1-.43,4.11,4.11,0,0,1-.83-.65,2.92,2.92,0,0,1-.55-.78,1.37,1.37,0,0,1-.12-.45,1,1,0,0,1,0-.39.87.87,0,0,1,.18-.31,1,1,0,0,1,.28-.22.87.87,0,0,1,.71-.09,1.61,1.61,0,0,1,.67.55,2.2,2.2,0,0,0,.81.69,2.32,2.32,0,0,0,1.1.24,2.49,2.49,0,0,0,.61-.08,1.73,1.73,0,0,0,.52-.22,1.15,1.15,0,0,0,.38-.34.8.8,0,0,0,.14-.48.88.88,0,0,0-.14-.51.94.94,0,0,0-.38-.3,1.84,1.84,0,0,0-.5-.17l-.55-.11A8,8,0,0,1,86.28,16Z" style="fill:#31aebc"/><path d="M96.76,12.13v7.36a1,1,0,0,1-.08.39,1,1,0,0,1-.22.31,1,1,0,0,1-.32.21,1,1,0,0,1-.39.08.92.92,0,0,1-.38-.08.81.81,0,0,1-.3-.21.92.92,0,0,1-.2-.31,1,1,0,0,1-.07-.39V12.13H92.89a1,1,0,0,1-.39-.08,1,1,0,0,1-.31-.21.87.87,0,0,1-.22-.32,1,1,0,0,1-.08-.39,1.06,1.06,0,0,1,.08-.4.84.84,0,0,1,.22-.31,1,1,0,0,1,.31-.21,1,1,0,0,1,.39-.08h5.75a1,1,0,0,1,.38.08,1.21,1.21,0,0,1,.32.22,1,1,0,0,1,.21.32,1,1,0,0,1,0,.78,1,1,0,0,1-.21.31,1,1,0,0,1-.7.29Z" style="fill:#31aebc"/><path d="M107.67,14.17a3.35,3.35,0,0,1-.37.79,2.69,2.69,0,0,1-.57.65,2.94,2.94,0,0,1-.73.47L107.65,19a.89.89,0,0,1,.12.38,1.2,1.2,0,0,1,0,.38,1.11,1.11,0,0,1-.18.34,1,1,0,0,1-.3.25,1,1,0,0,1-.38.12.81.81,0,0,1-.38,0,1,1,0,0,1-.34-.17.89.89,0,0,1-.25-.29l-2-3.6H103v3.11a1,1,0,0,1-.08.39,1.16,1.16,0,0,1-.22.31.89.89,0,0,1-.32.21,1,1,0,0,1-.78,0,1,1,0,0,1-.32-.21,1,1,0,0,1-.21-.31,1,1,0,0,1-.08-.39V11.12a1,1,0,0,1,.08-.39,1,1,0,0,1,.21-.31,1,1,0,0,1,.32-.21,1,1,0,0,1,.39-.08h2.7a3,3,0,0,1,1.23.25,3.3,3.3,0,0,1,1,.67,3.08,3.08,0,0,1,.93,2.22A3,3,0,0,1,107.67,14.17ZM103,12.11v2.27h1.69a1.13,1.13,0,0,0,.44-.1,1.37,1.37,0,0,0,.37-.26,1.34,1.34,0,0,0,.25-.37,1,1,0,0,0,.1-.44.94.94,0,0,0-.1-.43,1.24,1.24,0,0,0-.25-.35,1.1,1.1,0,0,0-.37-.23,1.12,1.12,0,0,0-.44-.09Z" style="fill:#31aebc"/><path d="M113,14.45l2.52-4a.87.87,0,0,1,.31-.23,1,1,0,0,1,.37-.1,1,1,0,0,1,.37.05,1,1,0,0,1,.35.19.78.78,0,0,1,.24.3.89.89,0,0,1,.11.35,1.06,1.06,0,0,1,0,.39,1.45,1.45,0,0,1-.2.39l-3,4.59v3.07a1,1,0,0,1-.07.39,1,1,0,0,1-.22.31,1,1,0,0,1-.32.21,1,1,0,0,1-.78,0,1,1,0,0,1-.31-.21,1,1,0,0,1-.22-.31,1,1,0,0,1-.07-.39V16.43l-3.07-4.59a1,1,0,0,1-.19-.34,1,1,0,0,1,0-.38,1,1,0,0,1,.1-.38,1.11,1.11,0,0,1,.25-.33.9.9,0,0,1,.34-.2,1,1,0,0,1,.38-.05,1,1,0,0,1,.38.1.79.79,0,0,1,.3.25Z" style="fill:#31aebc"/><path d="M13.32,13.77a.65.65,0,0,0-.15.18,2.55,2.55,0,0,0-.31.85,2.07,2.07,0,0,1,0,.22,4.91,4.91,0,0,0,1.38,0v0a2.84,2.84,0,0,0-.25-.86,1.33,1.33,0,0,0-.22-.34A.26.26,0,0,0,13.32,13.77Z" style="fill:#24515c"/><path d="M13.36,18.31a.26.26,0,0,0,.28,0,.77.77,0,0,0,.24-.27,2.45,2.45,0,0,0,.26-.68c0-.12,0-.24.07-.36a5.79,5.79,0,0,0-1.38,0v0a3.4,3.4,0,0,0,.28.94A.78.78,0,0,0,13.36,18.31Z" style="fill:#24515c"/><path d="M14.2,15.2l-.81,0-.51,0s-.09,0-.09.05,0,.41,0,.62v.08h1.54l0-.74Z" style="fill:#24515c"/><path d="M12.8,16.86a6.3,6.3,0,0,1,1.44,0l0-.74H12.75A4.73,4.73,0,0,0,12.8,16.86Z" style="fill:#24515c"/><path d="M11.76,16.11a2.71,2.71,0,0,0,.18.94l.69-.17-.06-.77Z" style="fill:#24515c"/><path d="M11.94,15a2.55,2.55,0,0,0-.18.95h.81l.06-.77Z" style="fill:#24515c"/><path d="M15.28,15.94A3,3,0,0,0,15.1,15L15,15l-.58.13c-.05,0-.06,0-.06.08s0,.31,0,.46,0,.16,0,.24Z" style="fill:#24515c"/><path d="M15.27,16.11h-.81l-.05.75.7.16A3.11,3.11,0,0,0,15.27,16.11Z" style="fill:#24515c"/><path d="M14,13.81c0,.09.11.17.15.26a3.8,3.8,0,0,1,.26.89s0,0,.06,0a.86.86,0,0,0,.17,0l.44-.1a1.88,1.88,0,0,0-1.12-1.12Z" style="fill:#24515c"/><path d="M15,17.17,14.38,17a3.28,3.28,0,0,1-.45,1.26A1.8,1.8,0,0,0,15,17.17Z" style="fill:#24515c"/><path d="M12,14.83l0,0,.49.13c.13,0,.13,0,.16-.12a2.88,2.88,0,0,1,.32-.95.82.82,0,0,1,.11-.17A1.94,1.94,0,0,0,12,14.83Z" style="fill:#24515c"/><path d="M13.09,18.29l-.22-.44a3.86,3.86,0,0,1-.2-.74s0-.07-.06-.06L12,17.2C12.15,17.66,12.76,18.27,13.09,18.29Z" style="fill:#24515c"/><path d="M15.56,14.81l-.31.15a3,3,0,0,1,.18,1h.47A2.14,2.14,0,0,0,15.56,14.81Z" style="fill:#24515c"/><path d="M15.9,16.11h-.47a3,3,0,0,1-.18,1l.31.15A2.19,2.19,0,0,0,15.9,16.11Z" style="fill:#24515c"/><path d="M11.56,17.24l.23-.12a3.22,3.22,0,0,1-.19-1h-.38A2.26,2.26,0,0,0,11.56,17.24Z" style="fill:#24515c"/><path d="M11.23,15.94h.37a3.23,3.23,0,0,1,.19-1l-.23-.11A2.16,2.16,0,0,0,11.23,15.94Z" style="fill:#24515c"/><path d="M14.54,13.9a2.48,2.48,0,0,1,.66.91l.28-.14A2.43,2.43,0,0,0,14.54,13.9Z" style="fill:#24515c"/><path d="M15.47,17.37l-.27-.13a2.67,2.67,0,0,1-.65.9A2.28,2.28,0,0,0,15.47,17.37Z" style="fill:#24515c"/><path d="M11.65,14.67l.2.11a2.67,2.67,0,0,1,.51-.76A2.2,2.2,0,0,0,11.65,14.67Z" style="fill:#24515c"/><path d="M12.36,18a2.6,2.6,0,0,1-.51-.76l-.2.1A2.23,2.23,0,0,0,12.36,18Z" style="fill:#24515c"/><polygon points="6.25 15.7 8.55 15.7 9.04 15.21 6.73 15.21 6.25 15.7" style="fill:#24515c"/><polygon points="7.31 14.6 9.6 14.6 12.19 11.96 9.97 11.96 7.31 14.6" style="fill:#31aebc"/><polygon points="19.62 17.27 17.4 17.27 14.73 19.91 17.03 19.91 19.62 17.27" style="fill:#31aebc"/><polygon points="6.74 16.77 9.04 16.77 8.56 16.29 6.25 16.29 6.74 16.77" style="fill:#24515c"/><polygon points="20.15 15.21 17.83 15.21 18.32 15.7 20.62 15.7 20.15 15.21" style="fill:#24515c"/><polygon points="20.62 16.29 18.31 16.29 17.83 16.77 20.14 16.77 20.62 16.29" style="fill:#24515c"/><path d="M23.61,14.83a1.7,1.7,0,0,1-.83-1A12.63,12.63,0,0,1,22.57,11a7.61,7.61,0,0,0-.29-2.68,3.56,3.56,0,0,0-.9-1,4.2,4.2,0,0,0-2.53-.52h-.91a1.93,1.93,0,0,1,0,1.49h.63a2.45,2.45,0,0,1,1.65.38,2.45,2.45,0,0,1,.37,1.62v1.42A6.59,6.59,0,0,0,21,14.4,3.27,3.27,0,0,0,23,16a3.36,3.36,0,0,0-1.89,1.39,6.09,6.09,0,0,0-.56,3v1.39a2.42,2.42,0,0,1-.37,1.62,2.45,2.45,0,0,1-1.65.38h-7a1.44,1.44,0,1,0,0,1.51h7.33a4.29,4.29,0,0,0,2.5-.5,3.81,3.81,0,0,0,.91-1,7.45,7.45,0,0,0,.31-2.7,11.93,11.93,0,0,1,.21-2.83,1.7,1.7,0,0,1,.82-1,2.73,2.73,0,0,1,1.4-.36V15.17A2.81,2.81,0,0,1,23.61,14.83Z" style="fill:#31aebc"/><path d="M16.35,6a1.45,1.45,0,0,0-1.23.69H7.64a4.22,4.22,0,0,0-2.5.51,3.53,3.53,0,0,0-.91,1,7.55,7.55,0,0,0-.3,2.69,12.88,12.88,0,0,1-.2,2.85,1.72,1.72,0,0,1-.82,1,2.78,2.78,0,0,1-1.41.35v1.59a2.79,2.79,0,0,1,1.39.35,1.7,1.7,0,0,1,.83,1A11.93,11.93,0,0,1,3.93,21a7.82,7.82,0,0,0,.29,2.68,3.71,3.71,0,0,0,.9,1.06,4.24,4.24,0,0,0,2.52.52h1a2,2,0,0,1,0-1.51H7.92a2.35,2.35,0,0,1-1.65-.39,2.47,2.47,0,0,1-.36-1.61V20.34a5.88,5.88,0,0,0-.55-3A3.29,3.29,0,0,0,3.47,16,3.36,3.36,0,0,0,5.4,14.54a6.21,6.21,0,0,0,.53-2.93l0-1.42a2.45,2.45,0,0,1,.37-1.62,2.42,2.42,0,0,1,1.64-.38h7.2A1.44,1.44,0,1,0,16.35,6Z" style="fill:#24515c"/><path d="M17,12l1.13-1.92H15.77l-2,3.35a2.8,2.8,0,0,1,1.78,1l.56-.95,1,1.13H19.5Z" style="fill:#31aebc"/><path d="M13.15,18.56a2.76,2.76,0,0,1-1.72-1.09l-.63,1.07L9.6,17.36H7.29L9.92,20,9,21.65h2.37Z" style="fill:#31aebc"/></svg>